<?xml version="1.0" encoding="UTF-8"?><svg id="Layer_1" xmlns="http://www.w3.org/2000/svg" xmlns:xlink="http://www.w3.org/1999/xlink" viewBox="0 0 454.21 187.66"><defs><style>.cls-1{fill:#fff;filter:url(#drop-shadow-2);}.cls-2{fill:#1a9141;}.cls-3{fill:#d4af37;}.cls-4{fill:#093272;}</style><filter id="drop-shadow-2" filterUnits="userSpaceOnUse"><feOffset dx="7" dy="7"/><feGaussianBlur result="blur" stdDeviation="18"/><feFlood flood-color="#000" flood-opacity=".36"/><feComposite in2="blur" operator="in"/><feComposite in="SourceGraphic"/></filter></defs><rect class="cls-1" x="37.49" y="23.53" width="379.23" height="134.47" rx="30.34" ry="30.34"/><path class="cls-4" d="M79.87,71.47c3.71-.62,8.57-1.15,14.75-1.15,7.6,0,13.16,1.77,16.69,4.95,3.27,2.83,5.21,7.15,5.21,12.45s-1.59,9.63-4.59,12.72c-4.06,4.33-10.69,6.54-18.2,6.54-2.3,0-4.42-.09-6.18-.53v23.85h-7.68v-58.83Zm7.68,28.71c1.68,.44,3.8,.62,6.36,.62,9.28,0,14.93-4.51,14.93-12.72s-5.56-11.66-14.04-11.66c-3.36,0-5.92,.27-7.24,.62v23.14Z"/><path class="cls-4" d="M133.84,75.54c.09,2.65-1.85,4.77-4.95,4.77-2.74,0-4.68-2.12-4.68-4.77s2.03-4.86,4.86-4.86,4.77,2.12,4.77,4.86Z"/><rect class="cls-4" x="125.19" y="87.55" width="7.77" height="42.75"/><path class="cls-4" d="M149.48,87.55l6.1,9.19c1.59,2.38,2.91,4.59,4.33,6.98h.27c1.41-2.56,2.83-4.77,4.24-7.07l6.01-9.1h8.39l-14.57,20.67,15.02,22.08h-8.83l-6.27-9.63c-1.68-2.47-3.09-4.86-4.59-7.42h-.18c-1.41,2.56-2.91,4.86-4.5,7.42l-6.18,9.63h-8.57l15.19-21.82-14.49-20.93h8.66Z"/><rect class="cls-4" x="186.75" y="87.55" width="7.77" height="42.75"/><path class="cls-4" d="M211.75,110.34c.18,10.51,6.89,14.84,14.66,14.84,5.56,0,8.92-.97,11.84-2.21l1.32,5.56c-2.74,1.24-7.42,2.65-14.22,2.65-13.16,0-21.02-8.66-21.02-21.55s7.6-23.05,20.05-23.05c13.96,0,17.67,12.28,17.67,20.14,0,1.59-.18,2.83-.27,3.62h-30.03Zm22.79-5.56c.09-4.95-2.03-12.63-10.78-12.63-7.86,0-11.31,7.24-11.92,12.63h22.7Z"/><path class="cls-2" d="M264.13,70.77h7.68v39.84c0,15.81-7.77,20.67-18.02,20.67-2.83,0-6.27-.62-8.21-1.41l1.15-6.27c1.59,.62,3.89,1.15,6.45,1.15,6.89,0,10.95-3.09,10.95-14.75v-39.22Z"/><path class="cls-2" d="M323.05,108.57c0,15.81-10.95,22.7-21.29,22.7-11.57,0-20.49-8.48-20.49-21.99,0-14.31,9.36-22.7,21.2-22.7s20.58,8.92,20.58,21.99Zm-33.92,.44c0,9.36,5.39,16.43,12.99,16.43s12.98-6.98,12.98-16.61c0-7.24-3.62-16.43-12.81-16.43s-13.16,8.48-13.16,16.61Z"/><path class="cls-2" d="M332.5,130.3c.18-2.91,.35-7.24,.35-11.04v-51.67h7.68v26.85h.18c2.74-4.77,7.68-7.86,14.57-7.86,10.6,0,18.11,8.83,18.02,21.82,0,15.28-9.63,22.88-19.17,22.88-6.18,0-11.13-2.38-14.31-8.04h-.26l-.35,7.07h-6.71Zm8.04-17.14c0,.97,.18,1.94,.35,2.83,1.5,5.39,6.01,9.1,11.66,9.1,8.13,0,12.98-6.63,12.98-16.43,0-8.57-4.42-15.9-12.72-15.9-5.3,0-10.25,3.62-11.84,9.54-.18,.88-.44,1.94-.44,3.18v7.68Z"/><g><g><path class="cls-3" d="M187.75,73.05c1.34-.59,3.64-.48,8.5,2.84,3.75,2.56,4.8,3.5,4.49,4.05-.43,.76-1.74-.31-6.23-3.21-3.57-2.31-5.14-1.25-6.32-1.35-1.48-.12-1.61-1.83-.45-2.33Z"/><path class="cls-3" d="M181.42,69.77c.02-.18,.12-.41,.85-.5,1.06-.12,2.32,.34,3.72,1.68,1.26,1.2,1.52,1.63,1.41,1.75-.11,.12-.63-.43-1.34-1.11-.85-.83-1.91-1.52-3.4-1.35-.97,.11-1.27-.19-1.24-.47Z"/><path class="cls-3" d="M180.7,72.26c-.04-.17-.02-.41,.62-.71,.93-.43,2.2-.39,3.88,.4,1.5,.71,1.87,1.02,1.81,1.15-.06,.14-.7-.19-1.55-.6-1.02-.49-2.19-.8-3.5-.19-.85,.39-1.21,.22-1.27-.05Z"/></g><path class="cls-3" d="M193.38,67.49c-.12-8.02-.42-12.14,1.06-26.2,.79-7.49,8.64-2.35,15.25,5.53,5.31,6.33,2.16,10.33-.91,14.32-3.07,3.98-6.52,7.12-6.2,7.89,.43,1.07,8.62-4.42,11.44-3.94,2.38,.4,4.37,10.63,1.58,12.99-1.77,1.5-8.42,.37-13.11-1.16-4.39-1.44-9.02-2.58-9.11-9.42Z"/><path class="cls-3" d="M192.46,68.57c-.65-7.83-1.22-11.92-.75-25.37-4.49-1.19-7.55-.36-6.49,4.01,3.12,12.84,3.54,14.97,6.15,21.96,.42,1.14,1.74,3.58,2.62,4.12-.81-1.14-1.36-2.66-1.53-4.73Z"/><path class="cls-3" d="M194.57,72.27s-.04-.07-.06-.11c.02,.04,.04,.08,.06,.11Z"/></g></svg>